# Wavefront OBJ exported by MilkShape 3D

mtllib water_gun.mtl

v -0.000152 -0.024700 -0.365968
v 0.035170 -0.024700 -0.365968
v 0.020915 -0.024700 -0.459201
v -0.017261 -0.024700 -0.459162
v -0.035475 -0.024700 -0.365968
v 0.029638 0.165727 0.055598
v 0.029644 0.165855 -0.011332
v 0.029644 0.102488 -0.011332
v 0.029638 0.102360 0.055598
v -0.031825 0.165727 0.055598
v -0.031825 0.102360 0.055598
v -0.031818 0.165855 -0.011332
v -0.031818 0.102488 -0.011332
v -0.035417 -0.022289 -0.225527
v -0.034863 -0.130270 -0.161729
v 0.035170 -0.130270 -0.161729
v 0.035170 -0.022289 -0.225527
v 0.023492 0.148167 -0.203987
v 0.023498 0.148295 -0.257531
v 0.023498 0.084928 -0.257531
v 0.023492 0.084800 -0.203987
v -0.025678 0.148167 -0.203987
v -0.025678 0.084800 -0.203987
v -0.025673 0.148295 -0.257531
v -0.025673 0.084928 -0.257531
v 0.037913 -0.065944 0.271356
v 0.037913 0.105497 0.341086
v 0.037913 0.105502 0.153605
v 0.037913 0.004046 0.195430
v 0.037913 -0.140285 0.305339
v -0.039402 -0.065944 0.271356
v -0.039402 -0.140285 0.305339
v -0.039402 0.004046 0.195430
v -0.039402 0.105497 0.341086
v -0.039402 0.105502 0.153605
v 0.044330 0.164990 0.087405
v 0.000065 0.157235 0.087405
v 0.000065 0.195768 0.116347
v 0.037913 -0.140285 0.341086
v -0.039402 -0.140285 0.341086
v 0.044330 0.164990 -0.028337
v 0.000065 0.157235 -0.028337
v 0.035489 0.122312 -0.297364
v -0.035706 0.122312 -0.297364
v -0.035527 0.108729 -0.308056
v 0.035106 0.108729 -0.307928
v 0.035109 0.109053 -0.036341
v 0.035489 0.122312 -0.031143
v -0.035763 0.122312 -0.031143
v -0.035763 0.109053 -0.036341
v 0.035170 -0.023287 -0.059023
v 0.035170 -0.066244 -0.059109
v 0.035170 -0.023287 0.058535
v 0.035462 0.108729 -0.381239
v 0.035471 0.127729 -0.436668
v 0.035170 -0.227335 0.020432
v 0.035170 -0.225673 0.128123
v 0.035170 -0.130270 -0.037500
v -0.035953 -0.005780 -0.673277
v -0.035763 0.059284 -0.673277
v -0.035441 -0.005839 -0.452204
v 0.000381 -0.053276 -0.673277
v 0.000381 -0.053276 -0.473017
v 0.035228 -0.005859 -0.452225
v -0.034863 -0.227335 0.020432
v -0.034863 -0.130270 -0.037500
v -0.034863 -0.225673 0.128123
v -0.034863 -0.165387 0.148696
v -0.035508 0.100616 0.222216
v -0.035508 0.101170 0.124886
v 0.035326 0.101170 0.124886
v 0.035326 0.100616 0.222216
v 0.035662 0.059284 -0.673277
v 0.035471 0.127729 -0.708045
v 0.035662 0.059284 -0.727846
v 0.035417 0.017242 0.152821
v 0.035433 0.017242 0.235073
v -0.035417 0.017242 0.152821
v -0.035400 0.017242 0.235073
v 0.035471 0.135160 -0.025946
v -0.035763 0.135180 -0.025946
v 0.035417 0.017242 0.072352
v -0.035417 0.017242 0.072352
v -0.043739 0.167293 -0.028337
v -0.043739 0.167293 0.087405
v -0.035417 -0.023287 0.058535
v -0.035417 -0.023287 -0.059023
v -0.035763 0.059284 -0.727846
v -0.014478 -0.056210 -0.079786
v -0.014478 -0.019428 -0.079832
v 0.014478 -0.019428 -0.079832
v 0.014478 -0.056210 -0.079786
v -0.035239 0.108729 -0.381239
v -0.034198 0.127729 -0.436668
v -0.035763 0.135180 0.097532
v -0.035763 0.127729 -0.708045
v 0.034804 -0.101376 -0.146199
v 0.035170 -0.072041 -0.167153
v 0.035228 -0.005821 -0.673277
v 0.044330 0.216604 0.087405
v 0.044330 0.216604 -0.028337
v 0.000065 0.242411 0.087405
v 0.055493 0.169277 -0.514209
v 0.000065 0.137238 -0.514209
v 0.000065 0.137238 -0.025874
v 0.055493 0.169277 -0.025874
v 0.055493 0.233355 -0.025874
v 0.000065 0.201316 0.025274
v 0.035471 0.135160 0.097532
v 0.000065 0.242411 -0.028337
v -0.014478 -0.048970 -0.111590
v 0.014478 -0.048970 -0.111590
v 0.014478 -0.019428 -0.111636
v -0.014478 -0.019428 -0.111636
v -0.014478 -0.090286 -0.123821
v 0.035170 -0.165387 0.148696
v -0.045068 0.216604 -0.028337
v -0.045068 0.216604 0.087405
v 0.014478 -0.090286 -0.123821
v -0.055493 0.169277 -0.025874
v -0.055493 0.233355 -0.025874
v -0.055493 0.169277 -0.514209
v -0.055493 0.233355 -0.514209
v 0.000065 0.201316 -0.554768
v 0.034804 -0.101376 -0.086816
v -0.034863 -0.101376 -0.146199
v -0.034863 -0.101376 -0.086672
v -0.034863 -0.066180 -0.059109
v -0.034863 -0.072081 -0.167129
v 0.035170 -0.022124 -0.168022
v -0.035417 -0.022124 -0.168022
v -0.000003 -0.010994 -0.812167
v -0.013756 0.006243 -0.812167
v -0.000003 -0.010994 -0.653252
v -0.013756 0.006243 -0.642221
v -0.000003 0.023832 -0.631707
v -0.000003 0.023832 -0.812167
v 0.013750 0.006243 -0.642221
v 0.013750 0.006243 -0.812167
v 0.001627 0.066697 -0.934820
v -0.022138 0.091518 -0.934820
v 0.001627 0.066697 -0.688858
v -0.022138 0.091518 -0.677827
v -0.006623 0.091518 -0.677827
v 0.001627 0.116846 -0.667313
v 0.025392 0.091518 -0.934820
v 0.001627 0.116846 -0.934820
v -0.019221 0.056985 -0.967699
v -0.038933 0.077520 -0.967699
v -0.038933 0.077520 -0.905833
v -0.019221 0.056985 -0.905833
v 0.000488 0.088104 -0.962666
v 0.020198 0.056985 -0.967699
v -0.019221 0.129258 -0.967699
v -0.019221 0.129258 -0.905833
v 0.020198 0.129258 -0.967699
v 0.020198 0.056985 -0.905833
v 0.039909 0.077520 -0.905833
v 0.039909 0.077520 -0.967699
v 0.020198 0.129258 -0.905833
v 0.015088 -0.017280 -0.797033
v -0.014112 -0.017280 -0.797033
v -0.028713 -0.002069 -0.797033
v 0.029689 -0.002069 -0.797033
v 0.015088 0.036256 -0.797033
v -0.014112 0.036256 -0.797033
v -0.014112 -0.017280 -0.841941
v 0.015088 -0.017280 -0.841941
v -0.014112 0.036256 -0.841941
v 0.015088 0.036256 -0.841941
v -0.028713 -0.002068 -0.841941
v 0.000488 0.005999 -0.850463
v 0.029689 -0.002068 -0.841941
v 0.000065 0.265394 -0.514209
v 0.000065 0.265394 -0.025874
v 0.055493 0.233355 -0.514209
# 176 vertices

vt 0.980548 0.084917
vt 0.980893 0.123400
vt 0.980548 0.111085
vt 0.980893 0.071064
vt 0.980548 0.058749
vt 0.478211 0.936496
vt 0.448148 0.988753
vt 0.447539 0.936379
vt 0.478821 0.988871
vt 0.507303 0.933520
vt 0.540195 0.992408
vt 0.540195 0.933628
vt 0.507303 0.992408
vt 0.357744 0.481656
vt 0.251998 0.408602
vt 0.246383 0.489799
vt 0.246383 0.408345
vt 0.251998 0.490057
vt 0.280839 0.422435
vt 0.300261 0.472493
vt 0.300261 0.422435
vt 0.280839 0.472493
vt 0.876795 0.196781
vt 0.747513 0.054666
vt 0.955906 0.054670
vt 0.793433 0.138765
vt 0.937088 0.269260
vt 0.353512 0.491787
vt 0.305877 0.533918
vt 0.353791 0.534429
vt 0.305867 0.491276
vt 0.350281 0.495236
vt 0.350281 0.532788
vt 0.955904 0.050074
vt 0.753896 0.016249
vt 0.954888 0.014719
vt 0.748141 0.051298
vt 0.487142 0.886092
vt 0.460858 0.798001
vt 0.460858 0.908287
vt 0.828011 0.644071
vt 0.828158 0.523006
vt 0.432718 0.895420
vt 0.489935 0.919675
vt 0.432718 0.919675
vt 0.489935 0.895420
vt 0.282529 0.059409
vt 0.244843 0.059409
vt 0.562274 0.061742
vt 0.410711 0.034880
vt 0.565287 0.034880
vt 0.404587 0.063008
vt 0.876934 0.296962
vt 0.795034 0.296962
vt 0.515121 0.371742
vt 0.622933 0.371965
vt 0.515027 0.452078
vt 0.360090 0.331171
vt 0.259589 0.038344
vt 0.345310 0.066198
vt 0.592757 0.986297
vt 0.528334 0.563895
vt 0.664946 0.985338
vt 0.362444 0.063932
vt 0.060217 0.297186
vt 0.247759 0.301766
vt 0.060273 0.162094
vt 0.010403 0.557366
vt 0.237629 0.337066
vt 0.010823 0.338959
vt 0.231287 0.404502
vt 0.219423 0.555219
vt 0.247860 0.359915
vt 0.703794 0.777686
vt 0.018078 0.038344
vt 0.004817 0.165552
vt 0.722041 0.080187
vt 0.671682 0.254371
vt 0.655488 0.079031
vt 0.729494 0.254371
vt 0.697779 0.347043
vt 0.697779 0.289782
vt 0.489935 0.888218
vt 0.432718 0.888218
vt 0.310414 0.527243
vt 0.311510 0.467300
vt 0.311510 0.527243
vt 0.310414 0.467300
vt 0.618427 0.343487
vt 0.625035 0.254371
vt 0.550279 0.343487
vt 0.037492 0.182887
vt 0.037434 0.231979
vt 0.037434 0.181852
vt 0.863475 0.604449
vt 0.863475 0.525191
vt 0.281678 0.049034
vt 0.243956 0.049034
vt 0.567803 0.007978
vt 0.639383 0.007978
vt 0.393072 0.562563
vt 0.393409 0.453585
vt 0.416195 0.518613
vt 0.339830 0.370331
vt 0.021687 0.038929
vt 0.257525 0.039492
vt 0.020544 0.038929
vt 0.258807 0.039492
vt 0.487142 0.738367
vt 0.432718 0.733990
vt 0.489935 0.733990
vt 0.460858 0.664504
vt 0.078828 0.881712
vt 0.433936 0.982217
vt 0.078828 0.981919
vt 0.433936 0.882010
vt 0.433936 0.681597
vt 0.459221 0.781803
vt 0.704997 0.077517
vt 0.656334 0.008497
vt 0.656508 0.077517
vt 0.704967 0.008536
vt 0.432718 0.653275
vt 0.489935 0.653275
vt 0.863475 0.588847
vt 0.898480 0.748564
vt 0.971017 0.657447
vt 0.918627 0.638086
vt 0.665896 0.415315
vt 0.688775 0.522480
vt 0.665896 0.522480
vt 0.688775 0.415315
vt 0.697779 0.356718
vt 0.697779 0.276168
vt 0.697779 0.351951
vt 0.697779 0.280934
vt 0.697927 0.304612
vt 0.697481 0.269513
vt 0.698372 0.339711
vt 0.918551 0.559092
vt 0.970941 0.559092
vt 0.863475 0.677874
vt 0.013602 0.203147
vt 0.036596 0.202006
vt 0.785846 0.297382
vt 0.880726 0.297382
vt 0.829590 0.297382
vt 0.078828 0.681299
vt 0.059476 0.683970
vt 0.023209 0.787279
vt 0.059476 0.890588
vt 0.837896 0.576448
vt 0.845740 0.617648
vt 0.857258 0.576036
vt 0.724365 0.456270
vt 0.778081 0.669945
vt 0.778081 0.456270
vt 0.724365 0.669945
vt 0.489311 0.518498
vt 0.778081 0.760268
vt 0.724365 0.760268
vt 0.023209 0.993897
vt 0.567237 0.036775
vt 0.551779 0.037788
vt 0.587814 0.039798
vt 0.676879 0.434049
vt 0.676879 0.493401
vt 0.697779 0.278162
vt 0.375604 0.368560
vt 0.824767 0.499262
vt 0.965638 0.499262
vt 0.824767 0.418684
vt 0.972401 0.418684
vt 0.978847 0.336459
vt 0.824767 0.336459
vt 0.816909 0.987637
vt 0.889120 0.943980
vt 0.816909 0.944600
vt 0.889120 0.987016
vt 0.753975 0.931626
vt 0.769734 0.967327
vt 0.797055 0.932072
vt 0.815511 0.911609
vt 0.889364 0.871165
vt 0.815954 0.869588
vt 0.888920 0.911609
vt 0.754136 0.819178
vt 0.965454 0.966356
vt 0.896761 0.928638
vt 0.919660 0.966356
vt 0.988354 0.928638
vt 0.965454 0.834414
vt 0.919660 0.834342
vt 0.882738 0.708959
vt 0.817226 0.803159
vt 0.817226 0.708417
vt 0.882738 0.803195
vt 0.776032 0.815092
vt 0.775994 0.840984
vt 0.785960 0.841208
vt 0.779640 0.849364
vt 0.023209 0.580661
vt 0.433936 0.581390
vt 0.078828 0.581092
vt 0.274673 0.533837
vt 0.274663 0.491195
vt 0.956557 0.271372
# 207 texture coordinates

vn 0.000000 -0.999997 0.002302
vn 0.493347 -0.855234 0.158693
vn 0.934500 -0.355599 -0.016062
vn -0.464213 -0.871260 0.159412
vn -0.929207 -0.368856 -0.022796
vn 0.894393 0.000000 0.447281
vn 0.894461 0.000000 -0.447146
vn 0.447231 0.000000 -0.894419
vn 0.447197 0.000000 0.894436
vn -0.447231 0.000000 0.894419
vn -0.894461 0.000000 0.447146
vn -0.894393 0.000000 -0.447281
vn -0.447197 0.000000 -0.894436
vn -0.835424 -0.282299 -0.471565
vn 0.752145 -0.502186 -0.426717
vn -0.749082 -0.627015 -0.213842
vn 0.894427 -0.227488 -0.385032
vn 0.713307 -0.372528 -0.593647
vn 0.873896 0.270416 -0.403956
vn 0.801781 0.534520 0.267275
vn 0.248033 -0.553804 -0.794847
vn 0.612478 -0.739796 -0.278518
vn -0.612478 -0.560876 -0.557036
vn -0.561469 -0.529544 -0.635874
vn -0.715487 -0.399382 -0.573213
vn -0.872869 0.218217 0.436441
vn -0.409933 0.507394 -0.757962
vn 0.779029 -0.436416 0.450173
vn -0.004924 -0.040488 0.999168
vn 0.020166 -0.933446 0.358152
vn 0.408248 -0.408248 0.816497
vn -0.408248 -0.816497 0.408248
vn 0.563894 -0.825847 0.000000
vn -0.093315 -0.995637 0.000000
vn 0.597364 0.649582 -0.470318
vn -0.826219 0.458946 -0.326697
vn -0.344873 0.898651 -0.271087
vn 0.743289 0.640129 -0.194309
vn 0.991592 -0.057132 0.116111
vn 0.562823 0.826176 -0.025769
vn -0.844329 0.366381 -0.390989
vn -0.999999 -0.001159 0.000292
vn 0.913020 -0.365230 -0.181664
vn 0.825019 -0.023870 0.564601
vn 0.620587 0.255923 -0.741198
vn 0.605330 0.785125 0.130975
vn 0.712486 0.691859 0.117027
vn 0.353626 -0.716046 -0.601853
vn 0.935788 -0.332923 -0.116033
vn 0.521637 -0.690041 0.501734
vn -0.506254 -0.170612 -0.845339
vn -0.905386 -0.423924 -0.023757
vn -0.943400 -0.233199 -0.235826
vn -0.511247 -0.798684 -0.317381
vn 0.314057 -0.874592 0.369401
vn 0.948422 -0.315241 -0.033447
vn -0.353626 -0.888398 -0.292742
vn -0.774110 -0.512011 0.372287
vn -0.914025 -0.309372 -0.262388
vn -0.589744 -0.033790 0.806883
vn -0.447445 0.894297 0.005083
vn 0.810765 0.527585 0.253601
vn -0.975773 0.196421 0.096367
vn 0.894007 0.448047 0.002454
vn 0.869259 -0.351090 -0.348030
vn 0.628416 0.490594 -0.603665
vn 0.640158 -0.460480 -0.614944
vn 0.832490 -0.554040 -0.000054
vn 0.447439 -0.894314 -0.000090
vn -0.447025 -0.894521 0.000045
vn -0.894013 -0.448041 0.000086
vn 0.466212 0.817205 -0.338854
vn -0.771229 0.527012 -0.357022
vn 0.767067 -0.594455 0.241311
vn -0.766956 -0.421270 0.484057
vn -0.571373 -0.694187 0.437764
vn -0.907568 -0.419905 0.000000
vn -0.825990 0.150758 0.543151
vn -0.870144 -0.350801 -0.346103
vn -0.642310 -0.457070 -0.615243
vn -0.739805 -0.194408 0.644123
vn 0.447214 0.001124 0.894426
vn -0.707107 0.000889 0.707106
vn 0.739805 -0.389745 0.548440
vn -0.452345 0.880543 0.141519
vn -0.894246 0.442007 0.070387
vn -0.267404 0.868679 0.417003
vn -0.375474 0.854681 -0.358525
vn 0.841072 0.168355 0.514057
vn 0.738297 0.538974 0.405493
vn 0.786495 -0.411902 -0.460176
vn 0.716277 0.561218 0.414708
vn 0.945307 0.326183 0.000000
vn -0.121355 0.905020 0.407690
vn 0.722407 -0.561188 -0.403977
vn 0.123064 -0.924600 0.360513
vn -0.124662 -0.906157 -0.404152
vn 0.862208 -0.356036 0.360327
vn 0.739773 0.568241 0.360331
vn 0.000510 -0.000000 1.000000
vn 0.746010 0.599500 0.289946
vn 0.193122 0.981175 0.000000
vn -0.558283 0.078361 -0.825942
vn 0.707107 -0.001107 -0.707106
vn 0.558283 0.158032 -0.814461
vn -0.631255 -0.640105 -0.437930
vn 0.589654 0.220690 0.776920
vn -0.845201 0.331171 0.419478
vn -0.758977 0.651118 0.000000
vn 0.852066 -0.432006 -0.295558
vn -0.739222 -0.568725 0.360697
vn -0.861931 0.356329 0.360701
vn -0.847129 -0.344805 -0.404328
vn -0.721842 0.561664 -0.404324
vn 0.000444 -0.000000 -1.000000
vn 0.588366 0.774022 -0.233914
vn -0.739303 0.550788 -0.387381
vn -0.739619 0.640165 0.207732
vn -0.845955 0.170427 -0.505286
vn -0.461337 0.277857 0.842593
vn 0.447336 0.015768 0.894227
vn -0.707122 0.004801 0.707075
vn 0.385496 -0.922709 0.000000
vn -0.385496 -0.922709 0.000000
vn -0.999988 -0.004913 0.000000
vn -0.392164 0.919895 0.000000
vn 0.392164 0.919895 0.000000
vn 0.999988 -0.004913 0.000000
vn 0.662835 -0.746128 0.062791
vn -0.421080 -0.907023 0.000000
vn 0.998554 -0.000491 0.053755
vn -0.432366 0.901698 0.000000
vn 0.992317 -0.005041 0.123618
vn 0.666627 0.742671 0.063632
vn -0.340935 -0.794681 -0.502241
vn -0.498858 -0.215916 0.839357
vn -0.764665 0.020338 -0.644108
vn -0.344515 -0.808244 0.477547
vn 0.000000 0.020899 -0.999782
vn 0.246228 -0.569596 -0.784176
vn -0.685926 0.628338 0.367011
vn -0.260144 0.714717 -0.649234
vn 0.567510 0.504704 -0.650543
vn 0.344516 -0.808244 0.477547
vn 0.791516 0.005975 0.611119
vn 0.694849 -0.320731 -0.643674
vn 0.289434 0.729727 0.619457
vn -0.355569 -0.842562 -0.404548
vn 0.305129 -0.728553 -0.613276
vn -0.348477 0.769772 -0.534804
vn 0.608786 0.587408 -0.533228
vn -0.854177 -0.020274 -0.519587
vn 0.000000 -0.045573 -0.998961
vn 0.796668 -0.307845 -0.520146
vn 0.125632 0.906025 -0.404149
vn -0.122080 0.924730 0.360515
vn 0.847413 0.344525 -0.403972
# 157 normals

g mesh0033
usemtl mesh0033mat
s 1
f 1/1/1 3/2/2 2/3/3
f 1/1/1 4/4/4 3/2/2
f 1/1/1 5/5/5 4/4/4
f 6/6/6 8/7/7 7/8/8
f 6/6/6 9/9/9 8/7/7
f 10/10/10 9/11/9 6/12/6
f 10/10/10 11/13/11 9/11/9
f 12/8/12 11/9/11 10/6/10
f 12/8/12 13/7/13 11/9/11
f 7/12/8 13/13/13 12/10/12
f 7/12/8 8/11/7 13/13/13
f 14/14/14 16/14/15 15/14/16
f 14/14/14 17/14/17 16/14/15
f 18/15/6 20/16/7 19/17/8
f 18/15/6 21/18/9 20/16/7
f 22/19/10 21/20/9 18/21/6
f 22/19/10 23/22/11 21/20/9
f 24/17/12 23/18/11 22/15/10
f 24/17/12 25/16/13 23/18/11
f 19/21/8 25/22/13 24/19/12
f 19/21/8 20/20/7 25/22/13
f 26/23/18 28/24/19 27/25/20
f 26/23/18 29/26/21 28/24/19
f 26/23/18 27/25/20 30/27/22
f 26/28/18 32/29/23 31/30/24
f 26/28/18 30/31/22 32/29/23
f 31/32/24 29/33/21 26/33/18
f 31/32/24 33/32/25 29/33/21
f 31/23/24 32/27/23 34/25/26
f 34/25/26 33/26/25 31/23/24
f 34/25/26 35/24/27 33/26/25
f 27/34/20 35/35/27 34/36/26
f 27/34/20 28/37/19 35/35/27
f 36/38/28 38/39/29 37/40/30
f 39/41/31 34/42/26 40/41/32
f 39/41/31 27/42/20 34/42/26
f 41/43/33 37/44/30 42/45/34
f 41/43/33 36/46/28 37/44/30
f 43/47/35 45/48/36 44/48/37
f 43/47/35 46/47/38 45/48/36
f 47/49/39 43/50/35 48/51/40
f 47/49/39 46/52/38 43/50/35
f 48/53/40 44/54/37 49/54/41
f 48/53/40 43/53/35 44/54/37
f 49/51/41 45/52/36 50/49/42
f 49/51/41 44/50/37 45/52/36
f 51/55/43 53/56/44 52/57/45
f 46/52/38 47/49/39 2/58/3
f 2/58/3 55/59/46 54/60/47
f 56/61/48 58/62/49 57/63/50
f 46/52/38 2/58/3 54/64/47
f 59/65/51 61/66/52 60/67/53
f 62/68/54 61/69/52 59/70/51
f 62/68/54 4/71/4 61/69/52
f 62/68/54 63/72/55 4/71/4
f 50/49/42 45/52/36 5/58/5
f 3/73/2 64/66/56 2/58/3
f 29/14/21 35/14/27 28/14/19
f 29/14/21 33/14/25 35/14/27
f 65/61/57 67/63/58 66/62/59
f 67/63/58 68/74/60 66/62/59
f 69/54/61 71/53/62 70/54/63
f 69/54/61 72/53/64 71/53/62
f 73/67/65 74/75/66 55/59/46
f 73/67/65 75/76/67 74/75/66
f 72/77/64 76/78/68 71/79/62
f 72/77/64 77/80/69 76/78/68
f 77/81/69 78/82/70 76/81/68
f 77/81/69 79/82/71 78/82/70
f 79/80/71 70/79/63 78/78/70
f 79/80/71 69/77/61 70/79/63
f 80/47/72 49/48/41 81/48/73
f 80/47/72 48/47/40 49/48/41
f 82/81/74 78/82/70 83/82/75
f 82/81/74 76/81/68 78/82/70
f 42/45/34 85/83/76 84/84/77
f 42/45/34 37/44/30 85/83/76
f 53/85/44 83/86/75 86/87/78
f 53/85/44 82/88/74 83/86/75
f 86/89/78 83/90/75 87/91/79
f 73/92/65 88/93/80 75/93/67
f 73/92/65 60/94/53 88/93/80
f 89/95/81 91/96/82 90/96/83
f 89/95/81 92/95/84 91/96/82
f 55/97/46 93/98/85 54/97/47
f 55/97/46 94/98/86 93/98/85
f 70/79/63 49/51/41 50/49/42
f 70/79/63 81/99/73 49/51/41
f 70/79/63 95/100/87 81/99/73
f 94/59/86 88/76/80 60/67/53
f 94/59/86 96/75/88 88/76/80
f 16/101/15 98/102/89 97/103/90
f 16/101/15 17/104/17 98/102/89
f 96/105/88 55/106/46 74/107/66
f 96/105/88 94/108/86 55/106/46
f 73/67/65 64/66/56 99/65/91
f 100/109/92 38/39/29 36/38/28
f 101/110/93 36/46/28 41/43/33
f 101/110/93 100/111/92 36/46/28
f 94/59/86 5/58/5 93/60/85
f 37/40/30 38/39/29 85/38/76
f 102/112/94 38/39/29 100/109/92
f 103/113/95 105/114/96 104/115/97
f 103/113/95 106/116/98 105/114/96
f 107/117/99 108/118/100 106/116/98
f 68/74/60 86/56/78 66/62/59
f 71/119/62 95/120/87 70/121/63
f 71/119/62 109/122/101 95/120/87
f 110/123/102 100/111/92 101/110/93
f 110/123/102 102/124/94 100/111/92
f 111/125/103 113/96/104 112/125/105
f 111/125/103 114/96/12 113/96/104
f 115/126/106 89/127/81 111/128/103
f 66/129/59 56/130/48 65/131/57
f 66/129/59 58/132/49 56/130/48
f 58/133/49 15/134/16 16/135/15
f 58/133/49 66/136/59 15/134/16
f 1/137/1 87/136/79 5/138/5
f 1/137/1 51/135/43 87/136/79
f 1/137/1 2/139/3 51/135/43
f 116/74/107 58/62/49 53/56/44
f 89/127/81 114/140/12 111/128/103
f 89/127/81 90/141/83 114/140/12
f 84/84/77 118/111/108 117/110/109
f 84/84/77 85/83/76 118/111/108
f 118/109/108 38/39/29 102/112/94
f 117/110/109 102/124/94 110/123/102
f 117/110/109 118/111/108 102/124/94
f 76/78/68 82/90/74 71/79/62
f 2/58/3 73/67/65 55/59/46
f 2/58/3 64/66/56 73/67/65
f 47/49/39 109/100/101 71/79/62
f 47/49/39 80/99/72 109/100/101
f 47/49/39 48/51/40 80/99/72
f 87/91/79 83/90/75 70/79/63
f 5/58/5 87/91/79 50/49/42
f 85/38/76 38/39/29 118/109/108
f 115/142/106 92/95/84 89/95/81
f 115/142/106 119/142/110 92/95/84
f 120/116/111 108/118/100 121/117/112
f 92/127/84 113/140/104 91/141/82
f 92/127/84 112/128/105 113/140/104
f 93/64/85 5/58/5 45/52/36
f 74/143/66 88/144/80 96/143/88
f 74/143/66 75/144/67 88/144/80
f 51/91/43 2/58/3 47/49/39
f 116/74/107 57/63/50 58/62/49
f 119/126/110 112/128/105 92/127/84
f 80/145/72 95/146/87 109/147/101
f 80/145/72 81/145/73 95/146/87
f 122/113/113 121/117/112 123/148/114
f 122/113/113 120/116/111 121/117/112
f 51/91/43 82/90/74 53/89/44
f 123/149/114 124/150/115 122/151/113
f 105/114/96 108/118/100 120/116/111
f 115/142/106 112/125/105 119/142/110
f 115/142/106 111/125/103 112/125/105
f 4/152/4 63/153/55 3/154/2
f 86/155/78 116/156/107 53/157/44
f 86/155/78 68/158/60 116/156/107
f 58/62/49 97/103/90 125/159/116
f 58/62/49 16/101/15 97/103/90
f 57/160/50 68/158/60 67/161/58
f 57/160/50 116/156/107 68/158/60
f 104/115/97 120/116/111 122/113/113
f 104/115/97 105/114/96 120/116/111
f 65/134/57 57/133/50 67/136/58
f 65/134/57 56/135/48 57/133/50
f 122/151/113 124/150/115 104/162/97
f 46/163/38 93/164/85 45/164/36
f 46/163/38 54/165/47 93/164/85
f 99/70/91 63/72/55 62/68/54
f 99/70/91 3/71/2 63/72/55
f 99/70/91 64/69/56 3/71/2
f 106/116/98 108/118/100 105/114/96
f 60/67/53 5/58/5 94/59/86
f 60/67/53 61/66/52 5/58/5
f 15/101/16 127/159/117 126/103/118
f 15/101/16 66/62/59 127/159/117
f 104/162/97 124/150/115 103/151/95
f 62/153/54 59/152/51 99/154/91
f 58/62/49 52/57/45 53/56/44
f 73/166/65 59/167/51 60/166/53
f 73/166/65 99/167/91 59/167/51
f 128/57/119 66/62/59 86/56/78
f 47/49/39 71/79/62 51/91/43
f 50/49/42 87/91/79 70/79/63
f 78/78/70 70/79/63 83/90/75
f 51/91/43 71/79/62 82/90/74
f 125/159/116 52/57/45 58/62/49
f 125/135/116 126/168/118 127/168/117
f 125/135/116 97/135/90 126/168/118
f 126/103/118 14/104/14 15/101/16
f 126/103/118 129/102/120 14/104/14
f 98/102/89 17/104/17 130/169/121
f 130/135/121 129/168/120 98/135/89
f 130/135/121 131/168/122 129/168/120
f 127/159/117 66/62/59 128/57/119
f 129/102/120 131/169/122 14/104/14
f 87/168/79 52/135/45 128/168/119
f 87/168/79 51/135/43 52/135/45
f 97/81/90 129/168/120 126/168/118
f 97/81/90 98/81/89 129/168/120
f 127/168/117 52/135/45 125/135/116
f 127/168/117 128/168/119 52/135/45
f 5/58/5 61/66/52 4/73/4
f 132/170/123 134/171/124 133/172/125
f 134/171/124 135/173/125 133/172/125
f 133/172/125 135/173/125 136/174/126
f 137/175/127 133/172/125 136/174/126
f 136/174/126 138/173/128 137/175/127
f 138/173/128 139/172/128 137/175/127
f 139/172/128 138/173/128 132/170/123
f 138/173/128 134/171/124 132/170/123
f 140/170/129 142/171/130 141/172/125
f 142/171/130 143/173/125 141/172/125
f 144/173/131 142/171/130 140/170/129
f 141/172/125 143/173/125 145/174/132
f 146/172/133 144/173/131 140/170/129
f 147/175/134 141/172/125 145/174/132
f 144/173/131 146/172/133 147/175/134
f 145/174/132 144/173/131 147/175/134
f 87/55/79 128/57/119 86/56/78
f 148/176/135 150/177/136 149/178/137
f 148/176/135 151/179/138 150/177/136
f 152/180/139 148/181/135 149/182/137
f 152/180/139 153/181/140 148/181/135
f 149/183/137 155/184/141 154/185/142
f 149/183/137 150/186/136 155/184/141
f 156/187/143 152/180/139 154/187/142
f 152/180/139 149/182/137 154/187/142
f 157/188/144 150/189/136 151/190/138
f 157/188/144 158/191/145 150/189/136
f 148/176/135 157/179/144 151/179/138
f 148/176/135 153/176/140 157/179/144
f 153/181/140 152/180/139 159/182/146
f 160/192/147 150/189/136 158/191/145
f 160/192/147 155/193/141 150/189/136
f 160/194/147 154/195/142 155/196/141
f 160/194/147 156/197/143 154/195/142
f 159/182/146 152/180/139 156/187/143
f 157/179/144 159/178/146 158/177/145
f 157/179/144 153/176/140 159/178/146
f 158/186/145 156/185/143 160/184/147
f 158/186/145 159/183/146 156/185/143
f 161/188/144 163/189/136 162/190/138
f 161/188/144 164/191/145 163/189/136
f 165/192/147 163/189/136 164/191/145
f 165/192/147 166/193/141 163/189/136
f 167/176/148 161/179/144 162/179/138
f 167/176/148 168/176/149 161/179/144
f 165/194/147 169/195/150 166/196/141
f 165/194/147 170/197/151 169/195/150
f 171/183/152 166/184/141 169/185/150
f 171/183/152 163/186/136 166/184/141
f 167/176/148 163/177/136 171/178/152
f 167/176/148 162/179/138 163/177/136
f 170/198/151 172/199/153 169/198/150
f 172/199/153 171/200/152 169/198/150
f 172/199/153 167/201/148 171/200/152
f 172/199/153 168/201/149 167/201/148
f 168/201/149 172/199/153 173/200/154
f 173/200/154 172/199/153 170/198/151
f 161/179/144 173/178/154 164/177/145
f 161/179/144 168/176/149 173/178/154
f 164/186/145 170/185/151 165/184/147
f 164/186/145 173/183/154 170/185/151
f 174/202/155 124/150/115 123/149/114
f 123/148/114 175/203/156 174/204/155
f 123/148/114 121/117/112 175/203/156
f 121/117/112 108/118/100 175/203/156
f 176/149/157 124/150/115 174/202/155
f 174/204/155 107/117/99 176/148/157
f 174/204/155 175/203/156 107/117/99
f 175/203/156 108/118/100 107/117/99
f 103/151/95 124/150/115 176/149/157
f 176/148/157 106/116/98 103/113/95
f 176/148/157 107/117/99 106/116/98
f 40/205/32 30/31/22 39/206/31
f 40/205/32 32/29/23 30/31/22
f 39/207/31 30/27/22 27/25/20
f 40/207/32 34/25/26 32/27/23
# 282 triangles in group

# 282 triangles total

