# 3ds Max Wavefront OBJ Exporter v0.97b - (c)2007 guruware
# File Created: 08.09.2016 15:35:34

mtllib 12gauge_shotgun_shell.mtl

#
# object 12gauge_shotgun_shell
#

v  -4.1302 -2.1906 -4.4080
v  4.1712 -2.1906 -4.4080
v  -4.1302 -2.1906 4.3607
v  4.1712 -2.1906 4.3607
v  4.1712 3.9707 4.3607
v  4.1712 3.9707 -4.4080
v  -4.1302 3.9707 4.3607
v  -4.1302 3.9707 -4.4080
# 8 vertices

vn -0.5774 -0.5774 -0.5774
vn 0.5774 -0.5774 -0.5774
vn -0.5774 -0.5774 0.5774
vn 0.5774 -0.5774 0.5774
vn 0.5774 0.5774 0.5774
vn 0.5774 0.5774 -0.5774
vn -0.5774 0.5774 0.5774
vn -0.5774 0.5774 -0.5774
# 8 vertex normals

vt 0.7786 0.4049 0.0000
vt 0.4059 0.4049 0.0000
vt 0.7786 0.0112 0.0000
vt 0.4059 0.0112 0.0000
vt 0.3896 0.3027 0.0000
vt 0.3896 0.6964 0.0000
vt 0.0169 0.3027 0.0000
vt 0.0169 0.6964 0.0000
vt 0.3896 0.0108 0.0000
vt 0.3896 0.2874 0.0000
vt 0.0169 0.0108 0.0000
vt 0.0169 0.2874 0.0000
vt 0.6776 0.9882 0.0000
vt 0.4010 0.9882 0.0000
vt 0.6776 0.5946 0.0000
vt 0.4010 0.5946 0.0000
vt 0.0064 0.9936 0.0000
vt 0.0064 0.7170 0.0000
vt 0.3791 0.9936 0.0000
vt 0.3791 0.7170 0.0000
vt 0.6993 0.5946 0.0000
vt 0.9759 0.5946 0.0000
vt 0.6993 0.9883 0.0000
vt 0.9759 0.9883 0.0000
# 24 texture coords

g 12gauge_shotgun_shell
usemtl _12gauge_shotgun_shellMaterial_000001
s 1
f 1/1/1 2/2/2 3/3/3 
f 2/2/2 4/4/4 3/3/3 
f 5/5/5 6/6/6 7/7/7 
f 6/6/6 8/8/8 7/7/7 
f 4/9/4 5/10/5 3/11/3 
f 5/10/5 7/12/7 3/11/3 
f 2/13/2 6/14/6 4/15/4 
f 6/14/6 5/16/5 4/15/4 
f 1/17/1 8/18/8 2/19/2 
f 8/18/8 6/20/6 2/19/2 
f 3/21/3 7/22/7 1/23/1 
f 7/22/7 8/24/8 1/23/1 
# 12 faces

