mtllib DolSmashplate.mtl

v 0.536394 10.677235 -2.749068
v -0.992075 11.154612 -2.719423
v -0.455588 11.157262 -2.071721
v 0.109224 10.621693 -3.471414
v 1.507082 9.915248 -3.136873
v 1.186880 9.775733 -3.901953
v 2.361459 8.945890 -3.197176
v 2.135410 8.699553 -3.968900
v 3.015892 7.864047 -2.924072
v 2.861958 7.498492 -3.665702
v 3.406321 6.775619 -2.344297
v 3.295413 6.290120 -3.022036
v 3.494527 5.787146 -1.514603
v 3.393338 5.192718 -2.100908
v 3.271876 4.995388 -0.516204
v 3.146153 4.313710 -0.992489
v 2.760164 4.477849 0.553167
v 2.578050 3.739138 0.194727
v 2.009479 4.285189 1.588835
v 1.744641 3.525247 1.344523
v 1.093305 4.436265 2.489420
v 0.727505 3.692972 2.344351
v 0.101322 4.916291 3.166766
v -0.373794 4.225896 3.096341
v -0.869366 5.678277 3.554571
v -1.451450 5.071852 3.526882
v -1.723743 6.647635 3.614874
v -2.399978 6.148034 3.593828
v -2.378176 7.729479 3.341770
v -3.126527 7.349093 3.290630
v -2.768605 8.817908 2.761996
v -3.559981 8.557467 2.646962
v -2.856810 9.806380 1.932300
v -3.657907 9.654866 1.725837
v -2.634160 10.598139 0.933902
v -3.410722 10.533874 0.617417
v -2.122447 11.115678 -0.135470
v -2.842618 11.108447 -0.569798
v -1.371762 11.308338 -1.171137
v -2.009210 11.322343 -1.719595
v 0.512062 10.355044 -2.418214
v 0.438258 10.192793 -2.365015
v 1.374175 9.678288 -2.762641
v -0.405582 10.601131 -1.788823
v -0.368963 10.781378 -1.816632
v -0.688437 10.634692 -1.498472
v -0.746651 10.843658 -1.445372
v 0.070814 7.340131 0.737351
v 0.063437 7.328498 0.940160
v 2.911683 6.400299 -1.611647
v 3.111800 6.320284 -1.580652
v 2.879590 6.873842 -2.020692
v 3.060977 6.889837 -2.058719
v 2.547469 7.799725 -2.513884
v 2.714219 7.856522 -2.573645
v 1.990770 8.720006 -2.746203
v 2.132987 8.817356 -2.816200
v 1.263985 9.544601 -2.694906
v 1.006680 4.812150 2.234329
v 0.912000 4.883847 2.091158
v 0.597740 5.010037 2.513562
v 1.691353 4.755332 1.325067
v 1.820377 4.677971 1.434478
v 2.329929 4.919221 0.444066
v 2.487094 4.849082 0.514655
v 2.765224 5.359471 -0.465607
v 2.941570 5.308732 -0.435105
v 2.894784 5.793905 -1.021838
v 3.105472 5.891576 -1.170066
v 0.224385 6.673753 1.189582
v 0.170910 6.862151 1.256642
v 0.599213 5.047289 2.293366
v -2.303854 10.284795 0.852802
v -2.258807 10.125508 0.767942
v -1.841184 10.746547 -0.108260
v -2.448206 9.451991 1.617240
v -2.501601 9.581598 1.739526
v -2.373171 8.611136 2.323027
v -2.423259 8.703690 2.476416
v -2.196759 8.089861 2.612730
v -2.198297 8.076542 2.810479
v -1.314231 7.798220 1.882700
v -1.136238 7.725278 1.932220
v -1.939766 10.497420 0.054883
v -0.373794 4.225896 3.096341
v 1.744641 3.525247 1.344523
v 0.727505 3.692972 2.344351
v 2.578050 3.739138 0.194727
v -1.451450 5.071852 3.526882
v 3.146153 4.313710 -0.992489
v -2.399978 6.148034 3.593828
v 3.393338 5.192718 -2.100908
v -3.126527 7.349093 3.290630
v 3.295413 6.290120 -3.022036
v -3.559981 8.557467 2.646962
v -3.657907 9.654866 1.725837
v 1.507082 9.915248 -3.136873
v 1.374175 9.678288 -2.762641
v 2.132987 8.817356 -2.816200
v 0.512062 10.355044 -2.418214
v 0.536394 10.677235 -2.749068
v -0.368963 10.781378 -1.816632
v -0.455588 11.157262 -2.071721
v -0.746651 10.843658 -1.445372
v -1.371762 11.308338 -1.171137
v -1.841184 10.746547 -0.108260
v -2.122447 11.115678 -0.135470
v -2.634160 10.598139 0.933902
v -1.495270 6.776169 3.233896
v -1.484351 6.764973 3.048537
v -1.977024 7.572557 3.032855
v -0.927100 6.103237 3.036955
v -0.725865 5.906921 3.176106
v -1.160338 7.130445 2.335879
v -1.028766 7.258931 2.248702
v -1.849424 7.357355 2.906651
v 3.406321 6.775619 -2.344297
v 3.060977 6.889837 -2.058719
v 3.494527 5.787146 -1.514603
v 2.714219 7.856522 -2.573645
v 3.015892 7.864047 -2.924072
v 2.361459 8.945890 -3.197176
v -2.423259 8.703690 2.476416
v -2.768605 8.817908 2.761996
v -2.198297 8.076542 2.810479
v -2.856810 9.806380 1.932300
v -2.501601 9.581598 1.739526
v -2.303854 10.284795 0.852802
v 0.101322 4.916291 3.166766
v -0.725865 5.906921 3.176106
v -0.869366 5.678277 3.554571
v 0.597740 5.010037 2.513562
v 1.006680 4.812150 2.234329
v 3.105472 5.891576 -1.170066
v 2.941570 5.308732 -0.435105
v 3.111800 6.320284 -1.580652
v -1.136238 7.725278 1.932220
v 0.170910 6.862151 1.256642
v 0.063437 7.328498 0.940160
v -1.028766 7.258931 2.248702
v -1.977024 7.572557 3.032855
v -2.378176 7.729479 3.341770
v 1.990770 8.720006 -2.746203
v -0.405582 10.601131 -1.788823
v 2.547469 7.799725 -2.513884
v 1.263985 9.544601 -2.694906
v 1.093305 4.436265 2.489420
v 2.009479 4.285189 1.588835
v 1.820377 4.677971 1.434478
v 2.760164 4.477849 0.553167
v 2.487094 4.849082 0.514655
v 3.271876 4.995388 -0.516204
v 0.109224 10.621693 -3.471414
v -2.009210 11.322343 -1.719595
v -0.992075 11.154612 -2.719423
v 1.186880 9.775733 -3.901953
v 2.861958 7.498492 -3.665702
v -3.410722 10.533874 0.617417
v -2.842618 11.108447 -0.569798
v 2.135410 8.699553 -3.968900
v -1.160338 7.130445 2.335879
v -1.484351 6.764973 3.048537
v -0.927100 6.103237 3.036955
v -1.849424 7.357355 2.906651
v -1.495270 6.776169 3.233896
v -1.723743 6.647635 3.614874
v -1.939766 10.497420 0.054883
v -2.196759 8.089861 2.612730
v -1.314231 7.798220 1.882700
v -2.258807 10.125508 0.767942
v -2.448206 9.451991 1.617240
v -2.373171 8.611136 2.323027
v 0.599213 5.047289 2.293366
v 2.894784 5.793905 -1.021838
v 0.224385 6.673753 1.189582
v 0.912000 4.883847 2.091158
v 1.691353 4.755332 1.325067
v 2.329929 4.919221 0.444066
v 0.070814 7.340131 0.737351
v -0.688437 10.634692 -1.498472
v 2.911683 6.400299 -1.611647
v 2.879590 6.873842 -2.020692
v 2.765224 5.359471 -0.465607
v 0.438258 10.192793 -2.365015

vt 0.392605 0.416180
vt 0.500000 0.498990
vt 0.500000 0.424682
vt 0.346666 0.486851
vt 0.295723 0.391506
vt 0.208342 0.451622
vt 0.218837 0.353075
vt 0.098567 0.396752
vt 0.169473 0.304648
vt 0.028088 0.327611
vt 0.152464 0.250968
vt 0.003802 0.250968
vt 0.169473 0.197287
vt 0.028088 0.174325
vt 0.218837 0.148861
vt 0.098567 0.105184
vt 0.295723 0.110430
vt 0.208342 0.050314
vt 0.392605 0.085756
vt 0.346666 0.015085
vt 0.500000 0.077253
vt 0.500000 0.002946
vt 0.607395 0.085756
vt 0.653334 0.015085
vt 0.704277 0.110430
vt 0.791658 0.050314
vt 0.781163 0.148861
vt 0.901433 0.105184
vt 0.830527 0.197287
vt 0.971912 0.174325
vt 0.847537 0.250968
vt 0.996198 0.250968
vt 0.830527 0.304648
vt 0.971912 0.327611
vt 0.781163 0.353074
vt 0.901433 0.396751
vt 0.704277 0.391506
vt 0.791658 0.451622
vt 0.607395 0.416180
vt 0.653334 0.486851
vt 0.919347 0.817319
vt 0.901647 0.814468
vt 0.856718 0.878270
vt 0.922316 0.749755
vt 0.940927 0.749755
vt 0.912723 0.726009
vt 0.930910 0.718395
vt 0.426006 0.726009
vt 0.411604 0.718395
vt 0.425967 0.952519
vt 0.411604 0.961455
vt 0.500000 0.959168
vt 0.500000 0.968397
vt 0.630503 0.948919
vt 0.636254 0.957696
vt 0.748232 0.919174
vt 0.759171 0.926640
vt 0.841661 0.872846
vt 0.059073 0.749755
vt 0.077684 0.749755
vt 0.069090 0.718395
vt 0.098353 0.814468
vt 0.080653 0.817319
vt 0.158339 0.872846
vt 0.143282 0.878270
vt 0.251768 0.919174
vt 0.240829 0.926640
vt 0.328098 0.938999
vt 0.342709 0.952380
vt 0.327561 0.726009
vt 0.342709 0.718395
vt 0.087277 0.726009
vt 0.759171 0.572871
vt 0.748232 0.580337
vt 0.857487 0.621991
vt 0.630503 0.550592
vt 0.636254 0.541815
vt 0.500000 0.540342
vt 0.500000 0.531114
vt 0.425967 0.545200
vt 0.411604 0.538057
vt 0.426006 0.615573
vt 0.411604 0.622739
vt 0.824584 0.615272
vt 0.653334 0.015085
vt 0.346666 0.015085
vt 0.500000 0.002946
vt 0.208342 0.050314
vt 0.791658 0.050314
vt 0.098567 0.105184
vt 0.901433 0.105184
vt 0.028088 0.174325
vt 0.971912 0.174325
vt 0.003802 0.250968
vt 0.996198 0.250968
vt 0.971912 0.327611
vt 0.901642 0.894455
vt 0.856718 0.878270
vt 0.759171 0.926640
vt 0.919347 0.817319
vt 0.972159 0.825828
vt 0.940927 0.749755
vt 0.996457 0.749755
vt 0.930910 0.718395
vt 0.972159 0.673683
vt 0.857487 0.621991
vt 0.901642 0.605056
vt 0.791811 0.550594
vt 0.240829 0.572871
vt 0.251768 0.580337
vt 0.342709 0.547130
vt 0.175416 0.615272
vt 0.142513 0.621991
vt 0.327354 0.615573
vt 0.342709 0.622739
vt 0.327194 0.560609
vt 0.500000 0.995933
vt 0.500000 0.968397
vt 0.346587 0.983884
vt 0.636254 0.957696
vt 0.653413 0.983884
vt 0.791811 0.948917
vt 0.500000 0.531114
vt 0.500000 0.503578
vt 0.411604 0.538057
vt 0.653413 0.515627
vt 0.636254 0.541815
vt 0.759171 0.572871
vt 0.027841 0.673683
vt 0.142513 0.621991
vt 0.098358 0.605056
vt 0.069090 0.718395
vt 0.059073 0.749755
vt 0.342709 0.952380
vt 0.240829 0.926640
vt 0.411604 0.961455
vt 0.411604 0.622739
vt 0.342709 0.718395
vt 0.411604 0.718395
vt 0.342709 0.622739
vt 0.342709 0.547130
vt 0.346586 0.515627
vt 0.748232 0.919174
vt 0.922316 0.749755
vt 0.630503 0.948919
vt 0.841661 0.872846
vt 0.003543 0.749755
vt 0.027841 0.825829
vt 0.080653 0.817319
vt 0.098357 0.894455
vt 0.143282 0.878270
vt 0.208189 0.948917
vt 0.346666 0.486851
vt 0.653334 0.486851
vt 0.500000 0.498990
vt 0.208342 0.451622
vt 0.028088 0.327611
vt 0.901433 0.396751
vt 0.791658 0.451622
vt 0.098567 0.396752
vt 0.327354 0.615573
vt 0.251768 0.580337
vt 0.175416 0.615272
vt 0.327194 0.560609
vt 0.240829 0.572871
vt 0.208189 0.550594
vt 0.824584 0.615272
vt 0.425967 0.545200
vt 0.426006 0.615573
vt 0.748232 0.580337
vt 0.630503 0.550592
vt 0.500000 0.540342
vt 0.087277 0.726009
vt 0.328098 0.938999
vt 0.327561 0.726009
vt 0.077684 0.749755
vt 0.098353 0.814468
vt 0.158339 0.872846
vt 0.426006 0.726009
vt 0.912723 0.726009
vt 0.425967 0.952519
vt 0.500000 0.959168
vt 0.251768 0.919174
vt 0.901647 0.814468

vn 0.389939 0.871423 -0.297606
vn 0.188264 0.969014 -0.159899
vn 0.188264 0.969014 -0.159899
vn 0.389939 0.871423 -0.297606
vn 0.587284 0.716507 -0.376449
vn 0.587284 0.716507 -0.376449
vn 0.760983 0.519432 -0.388710
vn 0.760983 0.519432 -0.388710
vn 0.894032 0.299488 -0.333187
vn 0.894032 0.299488 -0.333187
vn 0.973408 0.078205 -0.215316
vn 0.973408 0.078205 -0.215316
vn 0.991341 -0.122756 -0.046635
vn 0.991341 -0.122756 -0.046635
vn 0.946075 -0.283724 0.156344
vn 0.946075 -0.283724 0.156344
vn 0.842041 -0.388942 0.373753
vn 0.842041 -0.388942 0.373753
vn 0.689423 -0.428111 0.584308
vn 0.689423 -0.428111 0.584308
vn 0.503161 -0.397396 0.767402
vn 0.503161 -0.397396 0.767402
vn 0.301486 -0.299805 0.905110
vn 0.301486 -0.299805 0.905110
vn 0.104141 -0.144890 0.983952
vn 0.104141 -0.144890 0.983952
vn -0.069559 0.052186 0.996212
vn -0.069559 0.052186 0.996212
vn -0.202609 0.272129 0.940689
vn -0.202609 0.272129 0.940689
vn -0.281985 0.493412 0.822818
vn -0.281985 0.493412 0.822818
vn -0.299918 0.694374 0.654136
vn -0.299918 0.694374 0.654136
vn -0.254651 0.855342 0.451158
vn -0.254651 0.855342 0.451158
vn -0.150617 0.960560 0.233751
vn -0.150617 0.960560 0.233751
vn 0.002003 0.999729 0.023195
vn 0.002003 0.999729 0.023195
vn 0.502600 0.054277 0.862813
vn 0.502600 0.054277 0.862813
vn 0.372762 0.156200 0.914686
vn 0.640110 0.002486 0.768279
vn 0.640110 0.002486 0.768279
vn 0.902762 0.134703 0.408504
vn 0.902762 0.134703 0.408504
vn 0.744125 0.664881 0.064896
vn 0.744125 0.664881 0.064896
vn 0.263141 0.856754 0.443541
vn 0.263141 0.856754 0.443541
vn 0.129164 0.578125 0.805660
vn 0.129164 0.578125 0.805660
vn 0.170948 0.430571 0.886220
vn 0.170948 0.430571 0.886220
vn 0.258483 0.285863 0.922751
vn 0.258483 0.285863 0.922751
vn 0.372762 0.156200 0.914686
vn 0.437186 0.883021 0.170713
vn 0.437186 0.883021 0.170713
vn 0.796013 0.597912 0.094153
vn 0.305563 0.909275 0.282578
vn 0.305563 0.909275 0.282578
vn 0.205154 0.883504 0.421108
vn 0.205154 0.883504 0.421108
vn 0.130139 0.816425 0.562596
vn 0.130139 0.816425 0.562596
vn 0.414070 0.383926 0.825316
vn 0.414070 0.383926 0.825316
vn 0.881231 0.079857 0.465892
vn 0.881231 0.079857 0.465892
vn 0.796013 0.597912 0.094153
vn 0.934862 0.033824 0.353396
vn 0.934862 0.033824 0.353396
vn 0.557383 0.319917 0.766144
vn 0.956475 0.170764 0.236635
vn 0.956475 0.170764 0.236635
vn 0.948536 0.294895 0.115396
vn 0.948536 0.294895 0.115396
vn 0.707710 0.703314 0.067048
vn 0.707710 0.703314 0.067048
vn 0.196274 0.839992 0.505855
vn 0.196274 0.839992 0.505855
vn 0.557383 0.319917 0.766144
vn -0.638164 -0.527599 -0.560701
vn -0.638164 -0.527599 -0.560701
vn -0.638164 -0.527599 -0.560701
vn -0.638164 -0.527599 -0.560701
vn -0.638164 -0.527599 -0.560701
vn -0.638164 -0.527599 -0.560701
vn -0.638164 -0.527599 -0.560701
vn -0.638164 -0.527599 -0.560701
vn -0.638164 -0.527599 -0.560701
vn -0.638164 -0.527599 -0.560701
vn -0.638164 -0.527599 -0.560701
vn -0.638164 -0.527599 -0.560701
vn 0.638166 0.527589 0.560708
vn 0.638166 0.527589 0.560708
vn 0.638166 0.527589 0.560708
vn 0.638166 0.527589 0.560708
vn 0.638166 0.527589 0.560708
vn 0.638166 0.527589 0.560708
vn 0.638166 0.527589 0.560708
vn 0.638166 0.527589 0.560708
vn 0.638166 0.527589 0.560708
vn 0.638166 0.527589 0.560708
vn 0.638166 0.527589 0.560708
vn 0.638166 0.527589 0.560708
vn 0.806414 0.590407 -0.033395
vn 0.806414 0.590407 -0.033395
vn 0.855038 0.247251 0.455826
vn 0.457402 0.754649 0.470413
vn 0.457402 0.754649 0.470413
vn 0.337780 0.262178 0.903973
vn 0.337780 0.262178 0.903973
vn 0.855038 0.247251 0.455826
vn 0.638166 0.527589 0.560708
vn 0.638166 0.527589 0.560708
vn 0.638166 0.527589 0.560708
vn 0.638166 0.527589 0.560708
vn 0.638166 0.527589 0.560708
vn 0.638166 0.527589 0.560708
vn 0.638166 0.527589 0.560708
vn 0.638166 0.527589 0.560708
vn 0.638166 0.527589 0.560708
vn 0.638166 0.527589 0.560708
vn 0.638166 0.527589 0.560708
vn 0.638166 0.527589 0.560708
vn 0.638166 0.527589 0.560708
vn 0.638166 0.527589 0.560708
vn 0.638166 0.527589 0.560708
vn 0.638166 0.527589 0.560708
vn 0.638166 0.527589 0.560708
vn 0.638166 0.527589 0.560708
vn 0.638166 0.527589 0.560708
vn 0.638166 0.527589 0.560708
vn 0.638166 0.527589 0.560708
vn 0.638166 0.527589 0.560708
vn 0.638166 0.527589 0.560708
vn 0.638166 0.527589 0.560708
vn 0.638166 0.527589 0.560708
vn 0.638166 0.527589 0.560708
vn 0.638166 0.527589 0.560708
vn 0.638166 0.527589 0.560708
vn 0.638166 0.527589 0.560708
vn 0.638166 0.527589 0.560708
vn 0.638166 0.527589 0.560708
vn 0.638166 0.527589 0.560708
vn 0.638166 0.527589 0.560708
vn 0.638166 0.527589 0.560708
vn 0.638166 0.527589 0.560708
vn 0.638166 0.527589 0.560708
vn -0.638164 -0.527599 -0.560701
vn -0.638164 -0.527599 -0.560701
vn -0.638164 -0.527599 -0.560701
vn -0.638164 -0.527599 -0.560701
vn -0.638164 -0.527599 -0.560701
vn -0.638164 -0.527599 -0.560701
vn -0.638164 -0.527599 -0.560701
vn -0.638164 -0.527599 -0.560701
vn 0.638166 0.527589 0.560708
vn 0.638166 0.527589 0.560708
vn 0.638166 0.527589 0.560708
vn 0.638166 0.527589 0.560708
vn 0.638166 0.527589 0.560708
vn 0.638166 0.527589 0.560708
vn 0.638166 0.527589 0.560708
vn 0.638166 0.527589 0.560708
vn 0.638166 0.527589 0.560708
vn 0.638166 0.527589 0.560708
vn 0.638166 0.527589 0.560708
vn 0.638166 0.527589 0.560708
vn 0.638166 0.527589 0.560708
vn 0.638166 0.527589 0.560708
vn 0.638166 0.527589 0.560708
vn 0.638166 0.527589 0.560708
vn 0.638166 0.527589 0.560708
vn 0.638166 0.527589 0.560708
vn 0.638166 0.527589 0.560708
vn 0.638166 0.527589 0.560708
vn 0.638166 0.527589 0.560708
vn 0.638166 0.527589 0.560708
vn 0.638166 0.527589 0.560708
vn 0.638166 0.527589 0.560708

g polygon0
s 1
usemtl mat1
f 1/1/1 2/2/2 3/3/3
f 1/1/1 4/4/4 2/2/2
f 5/5/5 4/4/4 1/1/1
f 5/5/5 6/6/6 4/4/4
f 7/7/7 6/6/6 5/5/5
f 7/7/7 8/8/8 6/6/6
f 9/9/9 8/8/8 7/7/7
f 9/9/9 10/10/10 8/8/8
f 11/11/11 10/10/10 9/9/9
f 11/11/11 12/12/12 10/10/10
f 13/13/13 12/12/12 11/11/11
f 13/13/13 14/14/14 12/12/12
f 15/15/15 14/14/14 13/13/13
f 15/15/15 16/16/16 14/14/14
f 17/17/17 16/16/16 15/15/15
f 17/17/17 18/18/18 16/16/16
f 19/19/19 18/18/18 17/17/17
f 19/19/19 20/20/20 18/18/18
f 21/21/21 20/20/20 19/19/19
f 21/21/21 22/22/22 20/20/20
f 23/23/23 22/22/22 21/21/21
f 23/23/23 24/24/24 22/22/22
f 25/25/25 24/24/24 23/23/23
f 25/25/25 26/26/26 24/24/24
f 27/27/27 26/26/26 25/25/25
f 27/27/27 28/28/28 26/26/26
f 29/29/29 28/28/28 27/27/27
f 29/29/29 30/30/30 28/28/28
f 31/31/31 30/30/30 29/29/29
f 31/31/31 32/32/32 30/30/30
f 33/33/33 32/32/32 31/31/31
f 33/33/33 34/34/34 32/32/32
f 35/35/35 34/34/34 33/33/33
f 35/35/35 36/36/36 34/34/34
f 37/37/37 36/36/36 35/35/35
f 37/37/37 38/38/38 36/36/36
f 39/39/39 38/38/38 37/37/37
f 39/39/39 40/40/40 38/38/38
f 3/3/3 40/40/40 39/39/39
f 3/3/3 2/2/2 40/40/40
f 41/41/41 42/42/42 43/43/43
f 41/41/41 44/44/44 42/42/42
f 45/45/45 44/44/44 41/41/41
f 45/45/45 46/46/46 44/44/44
f 47/47/47 46/46/46 45/45/45
f 47/47/47 48/48/48 46/46/46
f 49/49/49 48/48/48 47/47/47
f 49/49/49 50/50/50 48/48/48
f 51/51/51 50/50/50 49/49/49
f 51/51/51 52/52/52 50/50/50
f 53/53/53 52/52/52 51/51/51
f 53/53/53 54/54/54 52/52/52
f 55/55/55 54/54/54 53/53/53
f 55/55/55 56/56/56 54/54/54
f 57/57/57 56/56/56 55/55/55
f 57/57/57 58/58/58 56/56/56
f 43/43/43 58/58/58 57/57/57
f 43/43/43 42/42/42 58/58/58
f 59/59/59 60/60/60 61/61/61
f 59/59/59 62/62/62 60/60/60
f 63/63/63 62/62/62 59/59/59
f 63/63/63 64/64/64 62/62/62
f 65/65/65 64/64/64 63/63/63
f 65/65/65 66/66/66 64/64/64
f 67/67/67 66/66/66 65/65/65
f 67/67/67 68/68/68 66/66/66
f 69/69/69 68/68/68 67/67/67
f 69/69/69 70/70/70 68/68/68
f 71/71/71 70/70/70 69/69/69
f 71/71/71 72/72/72 70/70/70
f 61/61/61 72/72/72 71/71/71
f 61/61/61 60/60/60 72/72/72
f 73/73/73 74/74/74 75/75/75
f 73/73/73 76/76/76 74/74/74
f 77/77/77 76/76/76 73/73/73
f 77/77/77 78/78/78 76/76/76
f 79/79/79 78/78/78 77/77/77
f 79/79/79 80/80/80 78/78/78
f 81/81/81 80/80/80 79/79/79
f 81/81/81 82/82/82 80/80/80
f 83/83/83 82/82/82 81/81/81
f 83/83/83 84/84/84 82/82/82
f 75/75/75 84/84/84 83/83/83
f 75/75/75 74/74/74 84/84/84
f 85/85/85 86/86/86 87/87/87
f 85/85/85 88/88/88 86/86/86
f 89/89/89 88/88/88 85/85/85
f 89/89/89 90/90/90 88/88/88
f 91/91/91 90/90/90 89/89/89
f 91/91/91 92/92/92 90/90/90
f 93/93/93 92/92/92 91/91/91
f 93/93/93 94/94/94 92/92/92
f 95/95/95 94/94/94 93/93/93
f 95/95/95 96/96/96 94/94/94
f 97/97/97 98/98/98 99/99/99
f 97/97/97 100/100/100 98/98/98
f 101/101/101 100/100/100 97/97/97
f 101/101/101 102/102/102 100/100/100
f 103/103/103 102/102/102 101/101/101
f 103/103/103 104/104/104 102/102/102
f 105/105/105 104/104/104 103/103/103
f 105/105/105 106/106/106 104/104/104
f 107/107/107 106/106/106 105/105/105
f 107/107/107 108/108/108 106/106/106
f 109/109/109 110/110/110 111/111/111
f 109/109/109 112/112/112 110/110/110
f 113/113/113 112/112/112 109/109/109
f 113/113/113 114/114/114 112/112/112
f 115/115/115 114/114/114 113/113/113
f 115/115/115 116/116/116 114/114/114
f 111/111/111 116/116/116 115/115/115
f 111/111/111 110/110/110 116/116/116
f 117/117/117 118/118/118 119/119/119
f 117/117/117 120/120/120 118/118/118
f 121/121/121 120/120/120 117/117/117
f 121/121/121 99/99/99 120/120/120
f 122/122/122 99/99/99 121/121/121
f 122/122/122 97/97/97 99/99/99
f 123/123/123 124/124/124 125/125/125
f 123/123/123 126/126/126 124/124/124
f 127/127/127 126/126/126 123/123/123
f 127/127/127 128/128/128 126/126/126
f 129/129/129 130/130/130 131/131/131
f 129/129/129 132/132/132 130/130/130
f 133/133/133 132/132/132 129/129/129
f 119/119/119 134/134/134 135/135/135
f 119/119/119 136/136/136 134/134/134
f 118/118/118 136/136/136 119/119/119
f 137/137/137 138/138/138 139/139/139
f 137/137/137 140/140/140 138/138/138
f 141/141/141 140/140/140 137/137/137
f 125/125/125 141/141/141 137/137/137
f 125/125/125 142/142/142 141/141/141
f 124/124/124 142/142/142 125/125/125
f 143/143/143 144/144/144 145/145/145
f 143/143/143 146/146/146 144/144/144
f 132/132/132 140/140/140 130/130/130
f 132/132/132 138/138/138 140/140/140
f 147/147/147 133/133/133 129/129/129
f 147/147/147 148/148/148 133/133/133
f 148/148/148 149/149/149 133/133/133
f 148/148/148 150/150/150 149/149/149
f 150/150/150 151/151/151 149/149/149
f 150/150/150 152/152/152 151/151/151
f 152/152/152 135/135/135 151/151/151
f 152/152/152 119/119/119 135/135/135
f 153/153/153 154/154/154 155/155/155
f 153/153/153 156/156/156 154/154/154
f 136/136/136 138/138/138 134/134/134
f 136/136/136 139/139/139 138/138/138
f 96/96/96 157/157/157 94/94/94
f 96/96/96 158/158/158 157/157/157
f 156/156/156 159/159/159 154/154/154
f 156/156/156 160/160/160 159/159/159
f 106/106/106 139/139/139 104/104/104
f 106/106/106 137/137/137 139/139/139
f 160/160/160 158/158/158 159/159/159
f 160/160/160 157/157/157 158/158/158
f 161/161/161 162/162/162 163/163/163
f 161/161/161 164/164/164 162/162/162
f 142/142/142 165/165/165 141/141/141
f 142/142/142 166/166/166 165/165/165
f 167/167/167 168/168/168 169/169/169
f 167/167/167 170/170/170 168/168/168
f 128/128/128 108/108/108 126/126/126
f 128/128/128 106/106/106 108/108/108
f 165/165/165 131/131/131 130/130/130
f 165/165/165 166/166/166 131/131/131
f 171/171/171 168/168/168 170/170/170
f 171/171/171 172/172/172 168/168/168
f 173/173/173 174/174/174 175/175/175
f 173/173/173 176/176/176 174/174/174
f 177/177/177 174/174/174 176/176/176
f 177/177/177 178/178/178 174/174/174
f 179/179/179 144/144/144 180/180/180
f 179/179/179 181/181/181 144/144/144
f 182/182/182 144/144/144 181/181/181
f 182/182/182 145/145/145 144/144/144
f 178/178/178 183/183/183 174/174/174
f 146/146/146 184/184/184 144/144/144

